<?xml version="1.0" standalone="no"?>
<svg xmlns:xlink="http://www.w3.org/1999/xlink" id="wave" style="transform:rotate(0deg); transition: 0.3s" viewBox="0 0 1440 230" version="1.1" xmlns="http://www.w3.org/2000/svg"><defs><linearGradient id="sw-gradient-0" x1="0" x2="0" y1="1" y2="0"><stop stop-color="rgba(57, 62, 70, 1)" offset="0%"/><stop stop-color="rgba(238, 238, 238, 1)" offset="100%"/></linearGradient></defs><path style="transform:translate(0, 0px); opacity:1" fill="url(#sw-gradient-0)" d="M0,0L21.8,3.8C43.6,8,87,15,131,23C174.5,31,218,38,262,57.5C305.5,77,349,107,393,118.8C436.4,130,480,123,524,130.3C567.3,138,611,161,655,153.3C698.2,146,742,107,785,103.5C829.1,100,873,130,916,126.5C960,123,1004,84,1047,72.8C1090.9,61,1135,77,1178,95.8C1221.8,115,1265,138,1309,134.2C1352.7,130,1396,100,1440,92C1483.6,84,1527,100,1571,107.3C1614.5,115,1658,115,1702,122.7C1745.5,130,1789,146,1833,145.7C1876.4,146,1920,130,1964,126.5C2007.3,123,2051,130,2095,134.2C2138.2,138,2182,138,2225,138C2269.1,138,2313,138,2356,138C2400,138,2444,138,2487,118.8C2530.9,100,2575,61,2618,61.3C2661.8,61,2705,100,2749,118.8C2792.7,138,2836,138,2880,138C2923.6,138,2967,138,3011,126.5C3054.5,115,3098,92,3120,80.5L3141.8,69L3141.8,230L3120,230C3098.2,230,3055,230,3011,230C2967.3,230,2924,230,2880,230C2836.4,230,2793,230,2749,230C2705.5,230,2662,230,2618,230C2574.5,230,2531,230,2487,230C2443.6,230,2400,230,2356,230C2312.7,230,2269,230,2225,230C2181.8,230,2138,230,2095,230C2050.9,230,2007,230,1964,230C1920,230,1876,230,1833,230C1789.1,230,1745,230,1702,230C1658.2,230,1615,230,1571,230C1527.3,230,1484,230,1440,230C1396.4,230,1353,230,1309,230C1265.5,230,1222,230,1178,230C1134.5,230,1091,230,1047,230C1003.6,230,960,230,916,230C872.7,230,829,230,785,230C741.8,230,698,230,655,230C610.9,230,567,230,524,230C480,230,436,230,393,230C349.1,230,305,230,262,230C218.2,230,175,230,131,230C87.3,230,44,230,22,230L0,230Z"/><defs><linearGradient id="sw-gradient-1" x1="0" x2="0" y1="1" y2="0"><stop stop-color="rgba(0, 173, 181, 1)" offset="0%"/><stop stop-color="rgba(238, 238, 238, 1)" offset="100%"/></linearGradient></defs><path style="transform:translate(0, 50px); opacity:0.9" fill="url(#sw-gradient-1)" d="M0,0L21.8,15.3C43.6,31,87,61,131,69C174.5,77,218,61,262,53.7C305.5,46,349,46,393,46C436.4,46,480,46,524,61.3C567.3,77,611,107,655,126.5C698.2,146,742,153,785,145.7C829.1,138,873,115,916,107.3C960,100,1004,107,1047,95.8C1090.9,84,1135,54,1178,61.3C1221.8,69,1265,115,1309,126.5C1352.7,138,1396,115,1440,88.2C1483.6,61,1527,31,1571,26.8C1614.5,23,1658,46,1702,72.8C1745.5,100,1789,130,1833,130.3C1876.4,130,1920,100,1964,76.7C2007.3,54,2051,38,2095,61.3C2138.2,84,2182,146,2225,164.8C2269.1,184,2313,161,2356,126.5C2400,92,2444,46,2487,46C2530.9,46,2575,92,2618,92C2661.8,92,2705,46,2749,53.7C2792.7,61,2836,123,2880,149.5C2923.6,176,2967,169,3011,157.2C3054.5,146,3098,130,3120,122.7L3141.8,115L3141.8,230L3120,230C3098.2,230,3055,230,3011,230C2967.3,230,2924,230,2880,230C2836.4,230,2793,230,2749,230C2705.5,230,2662,230,2618,230C2574.5,230,2531,230,2487,230C2443.6,230,2400,230,2356,230C2312.7,230,2269,230,2225,230C2181.8,230,2138,230,2095,230C2050.9,230,2007,230,1964,230C1920,230,1876,230,1833,230C1789.1,230,1745,230,1702,230C1658.2,230,1615,230,1571,230C1527.3,230,1484,230,1440,230C1396.4,230,1353,230,1309,230C1265.5,230,1222,230,1178,230C1134.5,230,1091,230,1047,230C1003.6,230,960,230,916,230C872.7,230,829,230,785,230C741.8,230,698,230,655,230C610.9,230,567,230,524,230C480,230,436,230,393,230C349.1,230,305,230,262,230C218.2,230,175,230,131,230C87.3,230,44,230,22,230L0,230Z"/></svg>